<svg width="16" height="16" viewBox="0 0 16 16" fill="none" xmlns="http://www.w3.org/2000/svg">
<path d="M2.1605 5.067C2.78383 5.067 3.33067 5.18883 3.801 5.4325C4.277 5.67617 4.6425 6.02467 4.8975 6.478C5.15817 6.92567 5.2885 7.447 5.2885 8.042C5.2885 8.637 5.15817 9.15833 4.8975 9.606C4.6425 10.048 4.277 10.3908 3.801 10.6345C3.33067 10.8782 2.78383 11 2.1605 11H0.0865V5.067H2.1605ZM2.118 9.9885C2.74133 9.9885 3.223 9.8185 3.563 9.4785C3.903 9.1385 4.073 8.65967 4.073 8.042C4.073 7.42433 3.903 6.94267 3.563 6.597C3.223 6.24567 2.74133 6.07 2.118 6.07H1.2765V9.9885H2.118ZM8.27027 11.0765C7.81694 11.0765 7.40894 10.9773 7.04627 10.779C6.68361 10.575 6.39744 10.2888 6.18777 9.9205C5.98377 9.55217 5.88177 9.12717 5.88177 8.6455C5.88177 8.16383 5.98661 7.73883 6.19627 7.3705C6.41161 7.00217 6.70344 6.71883 7.07177 6.5205C7.44011 6.3165 7.85094 6.2145 8.30427 6.2145C8.75761 6.2145 9.16844 6.3165 9.53677 6.5205C9.90511 6.71883 10.1941 7.00217 10.4038 7.3705C10.6191 7.73883 10.7268 8.16383 10.7268 8.6455C10.7268 9.12717 10.6163 9.55217 10.3953 9.9205C10.1799 10.2888 9.88527 10.575 9.51127 10.779C9.14294 10.9773 8.72927 11.0765 8.27027 11.0765ZM8.27027 10.0395C8.48561 10.0395 8.68677 9.9885 8.87377 9.8865C9.06644 9.77883 9.21944 9.62017 9.33277 9.4105C9.44611 9.20083 9.50277 8.94583 9.50277 8.6455C9.50277 8.19783 9.38377 7.855 9.14577 7.617C8.91344 7.37333 8.62727 7.2515 8.28727 7.2515C7.94727 7.2515 7.66111 7.37333 7.42877 7.617C7.20211 7.855 7.08877 8.19783 7.08877 8.6455C7.08877 9.09317 7.19927 9.43883 7.42027 9.6825C7.64694 9.9205 7.93027 10.0395 8.27027 10.0395ZM11.2937 8.6455C11.2937 8.15817 11.3929 7.73317 11.5912 7.3705C11.7895 7.00217 12.0644 6.71883 12.4157 6.5205C12.767 6.3165 13.1694 6.2145 13.6227 6.2145C14.2064 6.2145 14.688 6.36183 15.0677 6.6565C15.453 6.9455 15.7109 7.3535 15.8412 7.8805H14.5577C14.4897 7.6765 14.3735 7.51783 14.2092 7.4045C14.0505 7.2855 13.8522 7.226 13.6142 7.226C13.2742 7.226 13.005 7.35067 12.8067 7.6C12.6084 7.84367 12.5092 8.19217 12.5092 8.6455C12.5092 9.09317 12.6084 9.44167 12.8067 9.691C13.005 9.93467 13.2742 10.0565 13.6142 10.0565C14.0959 10.0565 14.4104 9.84117 14.5577 9.4105H15.8412C15.7109 9.9205 15.453 10.3257 15.0677 10.626C14.6824 10.9263 14.2007 11.0765 13.6227 11.0765C13.1694 11.0765 12.767 10.9773 12.4157 10.779C12.0644 10.575 11.7895 10.2917 11.5912 9.929C11.3929 9.56067 11.2937 9.13283 11.2937 8.6455Z" fill="white"/>
</svg>
